<mxfile modified="2020-02-08T09:09:54.129Z" host="www.draw.io" agent="Mozilla/5.0 (Macintosh; Intel Mac OS X 10_12_6) AppleWebKit/537.36 (KHTML, like Gecko) Chrome/80.0.3987.87 Safari/537.36" etag="r53haE_PmFo9I6Si-FvN" version="12.6.6" type="github">
  <diagram id="JTEC7zDQZaKKNVADHG2T" name="Page-1">
    <mxGraphModel dx="932" dy="463" grid="0" gridSize="10" guides="1" tooltips="1" connect="1" arrows="1" fold="1" page="1" pageScale="1" pageWidth="827" pageHeight="1169" math="0" shadow="0">
      <root>
        <mxCell id="0"/>
        <mxCell id="1" parent="0"/>
        <mxCell id="yheAhP4qUuCX2QJ-J1G--33" value="" style="rounded=0;whiteSpace=wrap;html=1;" parent="1" vertex="1">
          <mxGeometry x="100" y="340" width="490" height="90" as="geometry"/>
        </mxCell>
        <mxCell id="yheAhP4qUuCX2QJ-J1G--32" value="" style="rounded=0;whiteSpace=wrap;html=1;" parent="1" vertex="1">
          <mxGeometry x="100" y="76" width="490" height="90" as="geometry"/>
        </mxCell>
        <mxCell id="yheAhP4qUuCX2QJ-J1G--31" value="" style="rounded=0;whiteSpace=wrap;html=1;" parent="1" vertex="1">
          <mxGeometry x="100" y="210" width="490" height="90" as="geometry"/>
        </mxCell>
        <mxCell id="yheAhP4qUuCX2QJ-J1G--24" value="" style="rounded=0;whiteSpace=wrap;html=1;" parent="1" vertex="1">
          <mxGeometry x="350" y="220" width="100" height="50" as="geometry"/>
        </mxCell>
        <mxCell id="yheAhP4qUuCX2QJ-J1G--2" value="&lt;font style=&quot;font-size: 18px&quot;&gt;应用层&lt;/font&gt;" style="text;html=1;strokeColor=none;fillColor=none;align=center;verticalAlign=middle;whiteSpace=wrap;rounded=0;" parent="1" vertex="1">
          <mxGeometry x="140" y="113" width="70" height="20" as="geometry"/>
        </mxCell>
        <mxCell id="yheAhP4qUuCX2QJ-J1G--3" value="&lt;font style=&quot;font-size: 18px&quot;&gt;控制层&lt;/font&gt;" style="text;html=1;strokeColor=none;fillColor=none;align=center;verticalAlign=middle;whiteSpace=wrap;rounded=0;" parent="1" vertex="1">
          <mxGeometry x="140" y="245" width="70" height="20" as="geometry"/>
        </mxCell>
        <mxCell id="yheAhP4qUuCX2QJ-J1G--4" value="&lt;font style=&quot;font-size: 18px&quot;&gt;基础设施层&lt;/font&gt;" style="text;html=1;strokeColor=none;fillColor=none;align=center;verticalAlign=middle;whiteSpace=wrap;rounded=0;" parent="1" vertex="1">
          <mxGeometry x="115" y="377" width="120" height="20" as="geometry"/>
        </mxCell>
        <mxCell id="yheAhP4qUuCX2QJ-J1G--9" value="" style="rounded=0;whiteSpace=wrap;html=1;" parent="1" vertex="1">
          <mxGeometry x="330" y="230" width="100" height="50" as="geometry"/>
        </mxCell>
        <mxCell id="yheAhP4qUuCX2QJ-J1G--14" value="&lt;font style=&quot;font-size: 18px&quot;&gt;交换机&lt;/font&gt;" style="rounded=0;whiteSpace=wrap;html=1;" parent="1" vertex="1">
          <mxGeometry x="240" y="361" width="70" height="50" as="geometry"/>
        </mxCell>
        <mxCell id="yheAhP4qUuCX2QJ-J1G--17" value="&lt;font style=&quot;font-size: 18px&quot;&gt;路由器&lt;/font&gt;" style="rounded=0;whiteSpace=wrap;html=1;" parent="1" vertex="1">
          <mxGeometry x="330" y="361" width="70" height="50" as="geometry"/>
        </mxCell>
        <mxCell id="yheAhP4qUuCX2QJ-J1G--20" value="&lt;font style=&quot;font-size: 18px&quot;&gt;虚拟&lt;br&gt;交换机&lt;/font&gt;" style="rounded=0;whiteSpace=wrap;html=1;" parent="1" vertex="1">
          <mxGeometry x="418" y="360" width="70" height="50" as="geometry"/>
        </mxCell>
        <mxCell id="yheAhP4qUuCX2QJ-J1G--25" value="&lt;font style=&quot;font-size: 18px&quot;&gt;SDN控制器&lt;/font&gt;" style="rounded=0;whiteSpace=wrap;html=1;" parent="1" vertex="1">
          <mxGeometry x="310" y="240" width="100" height="50" as="geometry"/>
        </mxCell>
        <mxCell id="yheAhP4qUuCX2QJ-J1G--28" value="" style="rounded=0;whiteSpace=wrap;html=1;" parent="1" vertex="1">
          <mxGeometry x="350" y="86" width="100" height="50" as="geometry"/>
        </mxCell>
        <mxCell id="yheAhP4qUuCX2QJ-J1G--29" value="" style="rounded=0;whiteSpace=wrap;html=1;" parent="1" vertex="1">
          <mxGeometry x="330" y="96" width="100" height="50" as="geometry"/>
        </mxCell>
        <mxCell id="yheAhP4qUuCX2QJ-J1G--30" value="&lt;span style=&quot;font-size: 18px&quot;&gt;网络应用&lt;/span&gt;" style="rounded=0;whiteSpace=wrap;html=1;" parent="1" vertex="1">
          <mxGeometry x="310" y="106" width="100" height="50" as="geometry"/>
        </mxCell>
        <mxCell id="yheAhP4qUuCX2QJ-J1G--34" value="" style="endArrow=classic;startArrow=classic;html=1;strokeWidth=3;" parent="1" edge="1">
          <mxGeometry width="50" height="50" relative="1" as="geometry">
            <mxPoint x="320" y="213" as="sourcePoint"/>
            <mxPoint x="320" y="163" as="targetPoint"/>
          </mxGeometry>
        </mxCell>
        <mxCell id="yheAhP4qUuCX2QJ-J1G--36" value="" style="endArrow=classic;startArrow=classic;html=1;strokeWidth=3;" parent="1" edge="1">
          <mxGeometry width="50" height="50" relative="1" as="geometry">
            <mxPoint x="430" y="213" as="sourcePoint"/>
            <mxPoint x="430" y="163" as="targetPoint"/>
          </mxGeometry>
        </mxCell>
        <mxCell id="yheAhP4qUuCX2QJ-J1G--37" value="" style="endArrow=classic;startArrow=classic;html=1;strokeWidth=3;" parent="1" edge="1">
          <mxGeometry width="50" height="50" relative="1" as="geometry">
            <mxPoint x="374" y="212" as="sourcePoint"/>
            <mxPoint x="374" y="162" as="targetPoint"/>
          </mxGeometry>
        </mxCell>
        <mxCell id="yheAhP4qUuCX2QJ-J1G--41" value="" style="group" parent="1" vertex="1" connectable="0">
          <mxGeometry x="320" y="295" width="110" height="51" as="geometry"/>
        </mxCell>
        <mxCell id="yheAhP4qUuCX2QJ-J1G--38" value="" style="endArrow=classic;startArrow=classic;html=1;strokeWidth=3;" parent="yheAhP4qUuCX2QJ-J1G--41" edge="1">
          <mxGeometry width="50" height="50" relative="1" as="geometry">
            <mxPoint y="51" as="sourcePoint"/>
            <mxPoint y="1" as="targetPoint"/>
          </mxGeometry>
        </mxCell>
        <mxCell id="yheAhP4qUuCX2QJ-J1G--39" value="" style="endArrow=classic;startArrow=classic;html=1;strokeWidth=3;" parent="yheAhP4qUuCX2QJ-J1G--41" edge="1">
          <mxGeometry width="50" height="50" relative="1" as="geometry">
            <mxPoint x="110" y="51" as="sourcePoint"/>
            <mxPoint x="110" y="1" as="targetPoint"/>
          </mxGeometry>
        </mxCell>
        <mxCell id="yheAhP4qUuCX2QJ-J1G--40" value="" style="endArrow=classic;startArrow=classic;html=1;strokeWidth=3;" parent="yheAhP4qUuCX2QJ-J1G--41" edge="1">
          <mxGeometry width="50" height="50" relative="1" as="geometry">
            <mxPoint x="54" y="50" as="sourcePoint"/>
            <mxPoint x="54" as="targetPoint"/>
          </mxGeometry>
        </mxCell>
        <mxCell id="yheAhP4qUuCX2QJ-J1G--42" value="&lt;span style=&quot;font-size: 18px&quot;&gt;其它&lt;br&gt;设备&lt;/span&gt;" style="rounded=0;whiteSpace=wrap;html=1;" parent="1" vertex="1">
          <mxGeometry x="507" y="360" width="70" height="50" as="geometry"/>
        </mxCell>
        <mxCell id="yheAhP4qUuCX2QJ-J1G--44" value="&lt;font style=&quot;font-size: 18px&quot;&gt;北向接口&lt;/font&gt;" style="text;html=1;strokeColor=none;fillColor=none;align=center;verticalAlign=middle;whiteSpace=wrap;rounded=0;" parent="1" vertex="1">
          <mxGeometry x="437" y="180" width="93" height="20" as="geometry"/>
        </mxCell>
        <mxCell id="yheAhP4qUuCX2QJ-J1G--45" value="&lt;font style=&quot;font-size: 18px&quot;&gt;南向接口&lt;/font&gt;" style="text;html=1;strokeColor=none;fillColor=none;align=center;verticalAlign=middle;whiteSpace=wrap;rounded=0;" parent="1" vertex="1">
          <mxGeometry x="437" y="305.5" width="93" height="20" as="geometry"/>
        </mxCell>
      </root>
    </mxGraphModel>
  </diagram>
</mxfile>
